<mxfile host="Electron" agent="Mozilla/5.0 (Windows NT 10.0; Win64; x64) AppleWebKit/537.36 (KHTML, like Gecko) draw.io/24.7.17 Chrome/128.0.6613.36 Electron/32.0.1 Safari/537.36" version="24.7.17">
  <diagram id="WI9T0HZ2pTsCkuznbFz-" name="Page-1">
    <mxGraphModel dx="-133" dy="606" grid="0" gridSize="10" guides="1" tooltips="1" connect="1" arrows="1" fold="1" page="1" pageScale="1" pageWidth="1169" pageHeight="827" background="#FFFFFF" math="0" shadow="0">
      <root>
        <mxCell id="0" />
        <mxCell id="1" parent="0" />
        <mxCell id="C84VSm6xdojD2v56TbDM-2" value="&lt;b&gt;DATA SOURCE&lt;/b&gt;" style="text;html=1;align=center;verticalAlign=middle;resizable=0;points=[];autosize=1;strokeColor=none;fillColor=none;labelBackgroundColor=none;fontColor=#1A1A1A;" parent="1" vertex="1">
          <mxGeometry x="1209" y="446.1" width="104" height="26" as="geometry" />
        </mxCell>
        <mxCell id="C84VSm6xdojD2v56TbDM-40" value="&lt;font color=&quot;#000000&quot;&gt;&lt;b&gt;FRAUD DETECTION&lt;/b&gt;&lt;/font&gt;" style="text;html=1;align=center;verticalAlign=middle;resizable=0;points=[];autosize=1;strokeColor=none;fillColor=none;labelBackgroundColor=none;fontColor=#1A1A1A;" parent="1" vertex="1">
          <mxGeometry x="1828" y="201.5" width="133" height="26" as="geometry" />
        </mxCell>
        <mxCell id="C84VSm6xdojD2v56TbDM-44" value="" style="shape=image;verticalLabelPosition=bottom;labelBackgroundColor=none;verticalAlign=top;aspect=fixed;imageAspect=0;image=https://cdn-icons-png.flaticon.com/512/11094/11094214.png;fillColor=#5D7F99;strokeColor=#D0CEE2;fontColor=#1A1A1A;" parent="1" vertex="1">
          <mxGeometry x="1858.5" y="138.5" width="72" height="72" as="geometry" />
        </mxCell>
        <mxCell id="6jDuVlYYE3HyM0Hva7zj-65" style="edgeStyle=elbowEdgeStyle;rounded=0;orthogonalLoop=1;jettySize=auto;html=1;strokeColor=#66B2FF;" parent="1" edge="1">
          <mxGeometry relative="1" as="geometry">
            <mxPoint x="1828" y="388" as="targetPoint" />
            <mxPoint x="2000.1400000000003" y="283.145" as="sourcePoint" />
            <Array as="points">
              <mxPoint x="2114" y="325" />
            </Array>
          </mxGeometry>
        </mxCell>
        <mxCell id="C84VSm6xdojD2v56TbDM-56" value="" style="shape=image;verticalLabelPosition=bottom;labelBackgroundColor=none;verticalAlign=top;aspect=fixed;imageAspect=0;image=https://cdn-icons-png.flaticon.com/512/8071/8071255.png;fillColor=#5D7F99;strokeColor=#D0CEE2;fontColor=#1A1A1A;" parent="1" vertex="1">
          <mxGeometry x="2007.14" y="259.29" width="55.71" height="55.71" as="geometry" />
        </mxCell>
        <mxCell id="C84VSm6xdojD2v56TbDM-73" value="&lt;font color=&quot;#000000&quot;&gt;&lt;b&gt;MODEL TRAINING&lt;/b&gt;&lt;/font&gt;" style="text;html=1;align=center;verticalAlign=middle;resizable=0;points=[];autosize=1;strokeColor=none;fillColor=none;labelBackgroundColor=none;fontColor=#1A1A1A;" parent="1" vertex="1">
          <mxGeometry x="1355.4999999999998" y="449.1" width="122" height="26" as="geometry" />
        </mxCell>
        <mxCell id="C84VSm6xdojD2v56TbDM-77" value="" style="outlineConnect=0;dashed=0;verticalLabelPosition=bottom;verticalAlign=top;align=center;html=1;shape=mxgraph.aws3.s3;fillColor=#E05243;gradientColor=none;strokeColor=#D0CEE2;fontColor=#1A1A1A;" parent="1" vertex="1">
          <mxGeometry x="1508" y="253" width="46" height="47" as="geometry" />
        </mxCell>
        <mxCell id="C84VSm6xdojD2v56TbDM-83" value="&lt;b&gt;S3&lt;/b&gt;" style="text;html=1;align=center;verticalAlign=middle;resizable=0;points=[];autosize=1;strokeColor=none;fillColor=none;labelBackgroundColor=none;fontColor=#1A1A1A;" parent="1" vertex="1">
          <mxGeometry x="1528" y="297" width="33" height="26" as="geometry" />
        </mxCell>
        <mxCell id="6jDuVlYYE3HyM0Hva7zj-51" style="rounded=0;orthogonalLoop=1;jettySize=auto;html=1;strokeColor=#66B2FF;" parent="1" source="C84VSm6xdojD2v56TbDM-179" target="6jDuVlYYE3HyM0Hva7zj-42" edge="1">
          <mxGeometry relative="1" as="geometry" />
        </mxCell>
        <mxCell id="C84VSm6xdojD2v56TbDM-179" value="" style="shape=image;verticalLabelPosition=bottom;labelBackgroundColor=default;verticalAlign=top;aspect=fixed;imageAspect=0;image=https://upload.wikimedia.org/wikipedia/commons/thumb/d/de/AirflowLogo.png/800px-AirflowLogo.png;" parent="1" vertex="1">
          <mxGeometry x="1578.4400000000003" y="148" width="103.56" height="40" as="geometry" />
        </mxCell>
        <mxCell id="6jDuVlYYE3HyM0Hva7zj-6" value="" style="shape=image;verticalLabelPosition=bottom;labelBackgroundColor=default;verticalAlign=top;aspect=fixed;imageAspect=0;image=https://streamlit.io/images/brand/streamlit-logo-secondary-colormark-darktext.png;" parent="1" vertex="1">
          <mxGeometry x="1727.09" y="469" width="102.56" height="60" as="geometry" />
        </mxCell>
        <mxCell id="6jDuVlYYE3HyM0Hva7zj-44" style="edgeStyle=none;rounded=0;orthogonalLoop=1;jettySize=auto;html=1;strokeColor=#66B2FF;" parent="1" source="6jDuVlYYE3HyM0Hva7zj-14" target="C84VSm6xdojD2v56TbDM-179" edge="1">
          <mxGeometry relative="1" as="geometry" />
        </mxCell>
        <mxCell id="6jDuVlYYE3HyM0Hva7zj-14" value="" style="shape=image;verticalLabelPosition=bottom;labelBackgroundColor=default;verticalAlign=top;aspect=fixed;imageAspect=0;image=https://cdn-icons-png.flaticon.com/512/2164/2164832.png;" parent="1" vertex="1">
          <mxGeometry x="1229.5" y="138.5" width="63" height="63" as="geometry" />
        </mxCell>
        <mxCell id="6jDuVlYYE3HyM0Hva7zj-15" value="" style="shape=image;verticalLabelPosition=bottom;labelBackgroundColor=default;verticalAlign=top;aspect=fixed;imageAspect=0;image=https://seeklogo.com/images/N/neon-logo-F75F050518-seeklogo.com.png;" parent="1" vertex="1">
          <mxGeometry x="1718.59" y="357" width="109.41" height="31" as="geometry" />
        </mxCell>
        <mxCell id="6jDuVlYYE3HyM0Hva7zj-47" style="edgeStyle=none;rounded=0;orthogonalLoop=1;jettySize=auto;html=1;strokeColor=#66B2FF;" parent="1" source="6jDuVlYYE3HyM0Hva7zj-16" edge="1">
          <mxGeometry relative="1" as="geometry">
            <mxPoint x="1478" y="391" as="targetPoint" />
            <Array as="points">
              <mxPoint x="1464" y="393" />
            </Array>
          </mxGeometry>
        </mxCell>
        <mxCell id="6jDuVlYYE3HyM0Hva7zj-16" value="" style="shape=image;verticalLabelPosition=bottom;labelBackgroundColor=default;verticalAlign=top;aspect=fixed;imageAspect=0;image=https://icons.veryicon.com/png/o/education-technology/artificial-intelligence-algorithm/random-forest-classifier.png;" parent="1" vertex="1">
          <mxGeometry x="1373.5" y="391" width="64" height="64" as="geometry" />
        </mxCell>
        <mxCell id="6jDuVlYYE3HyM0Hva7zj-46" style="edgeStyle=none;rounded=0;orthogonalLoop=1;jettySize=auto;html=1;strokeColor=#66B2FF;" parent="1" source="6jDuVlYYE3HyM0Hva7zj-17" target="6jDuVlYYE3HyM0Hva7zj-16" edge="1">
          <mxGeometry relative="1" as="geometry" />
        </mxCell>
        <mxCell id="6jDuVlYYE3HyM0Hva7zj-17" value="" style="html=1;verticalLabelPosition=bottom;align=center;labelBackgroundColor=#ffffff;verticalAlign=top;strokeWidth=2;strokeColor=#6c8ebf;shadow=0;dashed=0;shape=mxgraph.ios7.icons.data;fillColor=#dae8fc;gradientColor=#66B2FF;" parent="1" vertex="1">
          <mxGeometry x="1237.5" y="401" width="41" height="48.1" as="geometry" />
        </mxCell>
        <mxCell id="6jDuVlYYE3HyM0Hva7zj-66" style="edgeStyle=elbowEdgeStyle;rounded=0;orthogonalLoop=1;jettySize=auto;html=1;strokeColor=#66B2FF;" parent="1" source="6jDuVlYYE3HyM0Hva7zj-18" target="6jDuVlYYE3HyM0Hva7zj-6" edge="1">
          <mxGeometry relative="1" as="geometry" />
        </mxCell>
        <mxCell id="6jDuVlYYE3HyM0Hva7zj-18" value="&lt;font color=&quot;#000000&quot;&gt;&lt;b&gt;DATABASE&lt;/b&gt;&lt;/font&gt;" style="text;html=1;align=center;verticalAlign=middle;resizable=0;points=[];autosize=1;strokeColor=none;fillColor=none;labelBackgroundColor=none;fontColor=#1A1A1A;" parent="1" vertex="1">
          <mxGeometry x="1736.87" y="388" width="83" height="26" as="geometry" />
        </mxCell>
        <mxCell id="6jDuVlYYE3HyM0Hva7zj-28" value="" style="sketch=0;outlineConnect=0;fontColor=#7EA6E0;gradientColor=none;strokeColor=#66B2FF;fillColor=#ffffff;dashed=0;verticalLabelPosition=bottom;verticalAlign=top;align=center;html=1;fontSize=12;fontStyle=0;aspect=fixed;shape=mxgraph.aws4.resourceIcon;resIcon=mxgraph.aws4.email;" parent="1" vertex="1">
          <mxGeometry x="2024" y="35" width="49" height="49" as="geometry" />
        </mxCell>
        <mxCell id="6jDuVlYYE3HyM0Hva7zj-36" value="" style="sketch=0;pointerEvents=1;shadow=0;dashed=0;html=1;strokeColor=none;labelPosition=center;verticalLabelPosition=bottom;verticalAlign=top;align=center;fillColor=#66B2FF;shape=mxgraph.mscae.intune.alerts" parent="1" vertex="1">
          <mxGeometry x="1987" y="49" width="37" height="31" as="geometry" />
        </mxCell>
        <mxCell id="6jDuVlYYE3HyM0Hva7zj-64" style="edgeStyle=elbowEdgeStyle;rounded=0;orthogonalLoop=1;jettySize=auto;html=1;entryX=1;entryY=0.5;entryDx=0;entryDy=0;strokeColor=#66B2FF;" parent="1" source="6jDuVlYYE3HyM0Hva7zj-37" target="6jDuVlYYE3HyM0Hva7zj-15" edge="1">
          <mxGeometry relative="1" as="geometry">
            <Array as="points">
              <mxPoint x="2150" y="220" />
            </Array>
          </mxGeometry>
        </mxCell>
        <mxCell id="6jDuVlYYE3HyM0Hva7zj-37" value="&lt;font color=&quot;#000000&quot;&gt;&lt;b&gt;FRAUD NOTIFICATION&lt;/b&gt;&lt;/font&gt;" style="text;html=1;align=center;verticalAlign=middle;resizable=0;points=[];autosize=1;strokeColor=none;fillColor=none;labelBackgroundColor=none;fontColor=#1A1A1A;" parent="1" vertex="1">
          <mxGeometry x="1961" y="84" width="148" height="26" as="geometry" />
        </mxCell>
        <mxCell id="6jDuVlYYE3HyM0Hva7zj-41" value="&lt;font color=&quot;#000000&quot;&gt;&lt;b&gt;NO FRAUD&lt;/b&gt;&lt;/font&gt;" style="text;html=1;align=center;verticalAlign=middle;resizable=0;points=[];autosize=1;strokeColor=none;fillColor=none;labelBackgroundColor=none;fontColor=#1A1A1A;" parent="1" vertex="1">
          <mxGeometry x="1997" y="311" width="81" height="26" as="geometry" />
        </mxCell>
        <mxCell id="6jDuVlYYE3HyM0Hva7zj-42" value="" style="shape=image;verticalLabelPosition=bottom;labelBackgroundColor=default;verticalAlign=top;aspect=fixed;imageAspect=0;image=https://cdn-icons-png.flaticon.com/256/8438/8438971.png;" parent="1" vertex="1">
          <mxGeometry x="1727" y="133" width="66" height="66" as="geometry" />
        </mxCell>
        <mxCell id="6jDuVlYYE3HyM0Hva7zj-43" value="&lt;font color=&quot;#000000&quot;&gt;&lt;b&gt;DATA&lt;br&gt;PREPROCESSING&lt;/b&gt;&lt;/font&gt;" style="text;html=1;align=center;verticalAlign=middle;resizable=0;points=[];autosize=1;strokeColor=none;fillColor=none;labelBackgroundColor=none;fontColor=#1A1A1A;" parent="1" vertex="1">
          <mxGeometry x="1696" y="194" width="123" height="41" as="geometry" />
        </mxCell>
        <mxCell id="6jDuVlYYE3HyM0Hva7zj-52" style="edgeStyle=none;rounded=0;orthogonalLoop=1;jettySize=auto;html=1;strokeColor=#66B2FF;" parent="1" source="6jDuVlYYE3HyM0Hva7zj-42" edge="1">
          <mxGeometry relative="1" as="geometry">
            <mxPoint x="1858" y="166" as="targetPoint" />
          </mxGeometry>
        </mxCell>
        <mxCell id="6jDuVlYYE3HyM0Hva7zj-53" style="rounded=0;orthogonalLoop=1;jettySize=auto;html=1;strokeColor=#66B2FF;exitX=1;exitY=0.25;exitDx=0;exitDy=0;" parent="1" source="C84VSm6xdojD2v56TbDM-44" edge="1">
          <mxGeometry relative="1" as="geometry">
            <mxPoint x="2032" y="101" as="targetPoint" />
            <mxPoint x="2029.27" y="150.5" as="sourcePoint" />
          </mxGeometry>
        </mxCell>
        <mxCell id="6jDuVlYYE3HyM0Hva7zj-56" style="edgeStyle=none;rounded=0;orthogonalLoop=1;jettySize=auto;html=1;exitX=0;exitY=1;exitDx=0;exitDy=0;entryX=0.5;entryY=0;entryDx=0;entryDy=0;entryPerimeter=0;strokeColor=#66B2FF;" parent="1" source="C84VSm6xdojD2v56TbDM-179" target="C84VSm6xdojD2v56TbDM-77" edge="1">
          <mxGeometry relative="1" as="geometry" />
        </mxCell>
        <mxCell id="6jDuVlYYE3HyM0Hva7zj-57" style="edgeStyle=none;rounded=0;orthogonalLoop=1;jettySize=auto;html=1;entryX=1;entryY=0.5;entryDx=0;entryDy=0;entryPerimeter=0;strokeColor=#66B2FF;" parent="1" source="6jDuVlYYE3HyM0Hva7zj-15" target="C84VSm6xdojD2v56TbDM-77" edge="1">
          <mxGeometry relative="1" as="geometry" />
        </mxCell>
        <mxCell id="6jDuVlYYE3HyM0Hva7zj-62" style="edgeStyle=none;rounded=0;orthogonalLoop=1;jettySize=auto;html=1;entryX=0.433;entryY=0.032;entryDx=0;entryDy=0;entryPerimeter=0;strokeColor=#66B2FF;" parent="1" source="C84VSm6xdojD2v56TbDM-179" target="6jDuVlYYE3HyM0Hva7zj-15" edge="1">
          <mxGeometry relative="1" as="geometry" />
        </mxCell>
        <mxCell id="mdYL66zVKTUVf9z0niZe-1" value="" style="shape=image;verticalLabelPosition=bottom;labelBackgroundColor=default;verticalAlign=top;aspect=fixed;imageAspect=0;image=data:image/png,iVBORw0KGgoAAAANSUhEUgAAAu4AAAETCAYAAABp+YOQAAAACXBIWXMAAAsTAAALEwEAmpwYAAAgAElEQVR4nOzdeWCW1ZX48e+575uwiuwqkADivqAkMWDHqWvttHamnXZq9/46XYaqQGtrO9N2Wkq3mY5OVUiwdNXupdOpXaabG21tZQvuVkUkJIgCAip78r73/P4IYIAEsjz3Ps+bnM8/Cry55xAgOe99zj0XjDHGGGOMMZknaSdgjDGZtlhzbH9+MC17hqGtQynmj0F1OE5GozIG8SOcyDGoDEA1d9jHOxyqeZBNXuU50GZUNlBW2ERZ/iV27dnJnJP3pvA7M8YYU2KscDfGmEN9e+1A9pSfTrE4w0GtwjTQyeAGg+YTiaHagpN1qD6k4pZTKK6gvPAoV520KZH1jTHG9DlWuBtj+jkV6tdPQaXKiZ+qqtNATgVGA0OBw3fRk+dBdoG+iLALlc0qWseYisVcKcUI8Y0xxpSAZHaOjDGmFNWvPd755lmqvB10siqktJ/hQIcCQ1EAPVmUKt283gHfTyMhY4wx2WOFuzGmf5mrjtHNr3Ii71DVN6owJO2UOrGHorfed2OMMQdY4W6M6R8WbRhMS/FCkeYPgF6qMCztlI5Mn8Pp02lnYYwxJjuscDfG9H3zG98orYW5CFPbfqIUjve4R5ABT6adhTHGmOywwt0Y03fVPT3RSf7jqnwQcGmn0x2quoxZY3eknYcxxpjssMLdGNP3LNZyNje/X1TnqjI27XR6RFiedgrGGGOyxQp3Y0zfUt90uWxqWgQyqTRaYjq0hz27H0s7CWOMMdlihbsxpm9YpGUU1l8tql8EyeqkmK56iMoHt6WdhDHGmGyxwt0YU/pueWqsFJq/i3J52qkkQUSW6JVX2sVLxhhjDlJSh7WMMeYwC9fPkGLZz/pK0Q76kvd6d9pZGGOMyR7bcTfGlK76pvOk6H+MSGXaqSRHniGndjDVGGPMYWzH3RhTmurWvUqU/0PoQ0U7IDzB1ROtv90YY8xhrHA3xpSeuubpolIPjEk7laSpZ2XaORhjjMkma5UxxpSW+rXniupvEEaknUoY/r60MzDGGJNNtuNujCkdN62pFJ+7Cfpo0S48S7HsqbTTMMYYk01WuBtjSoYrK/s8woVp5xGKeL0DN25j2nkYY4zJJmuVMcaUhrqmq1R5Z9pphOQl93/Mlr1p52GMMSabbMfdGJN9dY3nC9xE3/6atQv196adhDHGmOzqy98EjTF9wdx78oLUAeVppxLYc8yu3JB2EsYYY7LLCndjTLaNmTIHpCrtNEITkWVp52CMMSbbrMfdGJNdc+/Ji/AZNO1EekyBVkT2on43yB4UEIaCDAPd9zVYX/LqfpNmosYYY7LPCndjTHaNPvFTKMemncYRFBE24fVpEf7qhZV4aUB9EckVoNCK5lrxrpUypxRVybUWaB2slIng98xwQrVX91fK3e1p/2aMMcZkm6SdgDHGdKiu+bUi/AjVY9JOpQN7UJap8AvUPUCueD9XT9yWdlLGGGP6NttxN8ZkkIrQ9ClUsla07xXVr/m8/wpXTW5MOxljjDH9ixXuxpjsqW9+FSoz0k6jnR2C/tQX9Wu6deJS5olPOyFjjDH9j7XKGGOyZf6WYeJ2/h6YnnYq+6xReC+zKv+YdiLGGGP6NxsHaYzJlvyu15GJol28wLd0d/k5VrQbY4zJAmuVMcZkinjekXYOgFfhU3pN5X+mnYgxxhiznxXuxpjsmP/0OaB/k2oOSosib2BWhc1VN8YYkynWKmOMyQwn+dmQ7tx2Ff1XZlvRbowxJnvscKoxJhu+/PgxMmTws8CQtFJQJ+/g6oofpBXfGGOMORLbcTfGZMPQQReRYtEuwhetaDfGGJNlVrgbYzJAxSGvTyu6oF/211T+e1rxjTHGmK6wwt0Yk75bGieqktaFS4/6ss2fTim2McYY02VWuBtj0ld0FwJnxg+sLynycWbWtMaPbYwxxnSPFe7GmNQ55LVpxBWRHzCr4tdpxDbGGGO6ywp3Y0y65qpTOD9+YNnkC/KV+HGNMcaYnrELmIwx6Rq7eSzKuNhh1em/Matydey4xhhjTE/ZjrsxJmW7Tkck8tciWcfGl74fN6YxxhjTO1a4G2PSpXIOqlEvgxP8L5h3VkvMmMYYY0xvWeFujEnP/NUDHHJO3KD6osfbbrsxxpiSY4W7MSY9+fLxikyLGVKEX+ILD8SMaYwxxiTBCndjTHoKnAh6SsyQXvWHzDl5b8yYxhhjTBKscDfGpMfJqcCgiBG34FvvihjPGGOMSYwV7saY1Dg4O3LIe2233RhjTKmywt0YkxpFpsYMp+jdEeMZY4wxibLC3RiTjkUbBoOPefFSI4XikojxjDHGmERZ4W6MSUdLcQoiwyNGfIhtkx+LGM8YY4xJVD7tBIwx/ZT6V6AyJFo4WM48KcSKlwVS1/yXGHF0VsUrYsQxxpj+zgp3Y0x8i1aWuVb3N4rG+xokrIwWKzP0/NARRPixhg5ijDEGsMLd9GNVVVVvEZHgM8RV9YerVq16KnSckrJr1BDN6zQkWsSdkPtrtGhZ8JXmQRC+pPbK8uBBjDHGAFa4G/O5CDF+GCFGaSkbcCwUTooWT/VJpGxbtHhZMJBafIQ4ola4G2NMJHY41RgTnxbGAANjhRNxDWx6dE+seJngqQ0eQ0TJVy4LHscYYwxghbsxJg2q0yJGK3rvlzPv4v51MBU/PXgQ1eXMlNbgcYwxxgBWuBtjUuCcnBMvmu6iPNcP2zkk+I67YG0yxhgTkxXuxpi4vr12oMKUeAFlCwNan4gXLwPqNkwEKkKHsYOpxhgTlxXuxpi4dudPATkxWjxlHf88uX/1tzsfvr8doMxZf7sxxkRkhbsxJi7154KOixVOhMdjxcoK5yP0t8NGPlixOkIcY4wx+1jhboyJyqlMBYbGiufhyVixskIlwkQZrE3GGGNis8LdGBOVwtTIEftd4Y6GL9zVCndjjInOCndjTDyLF+eAMyJGXIOW9a9ba+ubzgMGhA+Us/52Y4yJzAp3Y0w82y4YgTImVjgRVlLY+1yseJlQjNLfDmV7bMfdGGMis8LdGBNPa+EMhPJY4bzyEC9MeilWvCxwLvz8duBhZk55MUIcY4wx7VjhboyJ6cyo0ZQG5omPGjNlSvj+drH57cYYkwor3I0xcSzaMNih50aMWETdoxHjpW/+s2NATg0dxjux/nZjjEmBFe7GmDj2Fk5QZFq0eCLb2LK6f/W3u5Y4/e1FsR13Y4xJgRXuxpg4ckwh5ihI1UbmXVyIFi8DnMbob5ftzJnwYPg4xhhjDmWFuzEmDtUziDKmsI3AQ7FiZUWci5e87bYbY0xKrHA3xkThkKgXL3lYGTNeRoQ/mIr1txtjTFqscDfGRKHoaRHDrQH3QMR46bu56SxgROgw3m5MNcaY1FjhbowJb9HKMkSOixdQm8jl18SLlwG5GG0yQKu1yhhjTFqscDfGhFcceSLKqFjhROVprjp+U6x4WeAitMkAa7h20rMR4hhjjOmAFe7GmPA0Nx0YGiucF56OFSsrVMJPlLGLl4wxJl1WuBtjAlNxyHQgFzFo/7p4qf6RoagGn5FvFy8ZY0y6rHA3xoQ1t3GAKjXR4gkKvjlavCzwQ+P0t2vRdtyNMSZFVrgbY8Ianb8COCtaPGU7Lj8lWrwscDEuXqLI2OVWuBtjTIryaSdgjAlkwYbTkNbLETcQ1Z0pZDDAiRuu6t8CDI4Y9xjxxWulbt1ZHraBtEaM3QE/2Ik71nt9nPL8H5k5vinpCBLlxlRdzpVXFsPHMcYY0xkr3I3pi25pHi/F1oUgF6OaWhqqPo2wAnK+wvmSRvTDOFRBRPZoS/FLwOcTDyFSG/rPWZBl6f1NMsYYA9YqY0zfVNQpIOennYZpT3MgLyS+7MJ1J6I6PvF1D+HFJsoYY0zarHA3pk/SicDAtLMw7clmnL8/8WV9lP52KFrhbowxabPC3Zi+SKQy7RTMIUQa2VS5NOllnUS4eEn1WeZU9q+baI0xJoOscDemD3JqhXvWCPpX5kkh6XVVIxTuNr/dGGMywQp3Y/ogVR+859l0j0ceSHzRueqA6YmvewhVtTYZY4zJACvcjemT5Pi0MzCHUP9E4mse90wtcaaDWeFujDEZYIW7MX2NqiAyOu00zEF2k3eNia/qNc7B1J27rXA3xpgMsMLdmL5m4aNDQIemnYZpR3mMAUM3J72sI0J/O/IA/3ra9vBxjDHGHI0V7sb0NX70GGwUZKaI6J8YMjzx4lfR4P3tYm0yxhiTGVa4G9PX6N4poOVpp2EOKHgnf+BKKSa6av3a44GTEl2zA16tcDfGmKywwt2YvkY4ESSXdhrmgJfY65Mfp+hzcfrbabHC3RhjMsIKd2P6krlrBzrhROzfdobIJq6d9GzSqzoXo7+dF5g95eEIcYwxxnSBfXM3pi8ZzkBVTkw7DdOefyTEqurD97djbTLGGJMpVrgb05cMzA/BueB9z6brFLk/yMIiwXfcRaxwN8aYLLHC3Zi+pJgfjtdT0k7DHFDE8Vjiqy5sngoMS3zdQ3hvN6YaY0yWWOFuTJ/SOgphSNpZmP1kNV5XJ76sj9LfDmUDkj9Ua4wxpsescDemL1E/Ju0UzMtE9EHKCuuTXtfhw/e3w5NcdfymCHGMMcZ0kRXuxvQlzp2RdgrmZR4eZeaUF5NeV4nR325tMsYYkzVWuBvTlyjJXvJjekfdnYmvOX/LMGBq4usewns7mGqMMVmTTzsBY0yCyjZdL61jh3phC56doB7nNHxgLcPrUIFXInIpMDB8zP2h2SrCV733z5LL7Y0WtzPeC8hxiH+EWZX3Jb5+fk8tPvFVO4jjrL/dGGMyxgp3Y/qSmTWtHj6ZUnTR+qYHRJkEnBkrqIrM01kV82PFS12xOB0JHqWFqypsx90YYzKmzxTu55xzznjn3BTn3EgRGQYM894PAxCRHaq6XUR2iMiOYrG44f77738w5ZSDmDp16thcLjdFREY554Z6749xzg1V1aHALlXd6pzb6r3f6pzbViwWt95///0b0s7b9AkK8jToqIgxX6Qs942I8VInEmWijBXtwMUrNp8qXsY75Rh1bijKUESH4hmisAvhBVFeUNGtImx33r8gRf/i7//GDvUaY8IoycL9/PPPH9nS0vJGVT1fRM4AzqDdTGPVts4AkZe3pfb/v6rinKO6unoP8ACwXFXvV9V77r///nURfxu9VlNTU+u9vxA4W0ROBU4Bhu//dVVFRA58PoADP97/332fC4B1IrJUVVcCf2poaLDH5Kb7nDuGYnFstHjKE4y4N/32mLjCH0yF5RH6qzLjkj9vmyi54utwMhXlJGAKMHF/S5IKsP/rqALCyw89BAQBBS85yOe4dNkWVHlc0LtV3L0Dysru/E3VMZtj/76MMX1PyRTu1dXVo0Xk9cDbWlpaLoWDC/MeGAjMAGaICCJCdXX1KuBnIvKTlStXPtH7rJN1zjnnjC8rK/tHVb0EuERVj+3l56C9iao6EXgLQHV19RYR+Y33/merVq3636SCmD6utXUczkU79C6iD+iVb47R8Z0NN685GTg+dBhP3+5vP/8vzYMGlQ25SIr6dwh/B/4U9hXfSRHhNJDTBL26pbWFS5dteRJhiaos8VK4Z0nt2OeSi1YC5mrYrwvzpP98HTD9Wr6mpuazIQOIyO0rVqx4oKcfX1NT8xrg/ar6xvY7x4FUAVWq+vnq6upHgUUNDQ0LQgc9mmnTptXkcrnrVPUtET4H+41S1XeKyDurq6s3AAt2795d99hjj+2IlYApQU7Oihhtj4d7QfrP5nA+V5tkcdmpXGufa5V5zWod0LJl698jXAlcgdfBEc4KtHcKyimC/ktOc1y67Pn7Rfhf9fK/d80YlfztullR13g+6qYhTeWQCxenvlnxbGZP2c/52PE7wwUKYH7jNBzTEOdR9rT7ld0H/k/Zg9v3r99LC6L73qj4VsQV2l7jixR84cDHSN6Tcy1tP9gLMnA314xvDvp7SdrixTk21b4aOB7J7UW1bXKaSiuibb9X5wqobwWgqB4nbb9nj5Jr9/kU2UtL28vISQtS1vY5LLQIH5r8JNKF7yW3rJ2Ez/+/bv0ePH9gdsUSABY0X4Tjwra8C7dx1eTGI35sfdN7QCYCcE3FPIC8qs7tVgLd5L1vpK0lpcvOP//8ka2trVep6vtVdVKQxI7uTGB+dXX1p4G68vLyuvvuu29rzASqq6vfDHwUmB6xYO/IOOA/Bg0a9Mnq6uobgBsaGhp2pZmQySaHnBrxb+pWyPXpneFDOZXaCJ/f9Uf9ZlJCLlu29QqPvrtl69bXIQxOO5+XyTRVpiF8/tJlW1YLumBQruWbv6wZ16e+tjrcm1SYBTKAkOOQFBBZp4MLzwL3hAuUsEWNJ0irfB9kCsqhbzja97nqgXatg+pLpy+/KqfkD32wsf+DygUtlmu7dtqSsOkVbxL130IQVF9ui5R2RVHRg+z7LLh278Yd0O6zg6qSzx9YABRUh5Mve07rm98F/PGo+RTyk0T0s935LQg6z8OStpT8RaoyF0B8foSHDx/xY5WbQI8FUGgr3LsTPIaampqPt7S0fILs/OUaA8xraWn5RFVV1edXrVr1pdABq6qqqkWkHohxO2J3HEPbX5yZ1dXVn2xoaLgt7YRMtqjIJKK9ydRNbB7/dKRgmaAi4XfctQ8cTFWVy1ZsfbMqn1H0zLgb6z1ysiLzdxUHfO6Spc9/1Tt/cx9qpdl94GBAcDoRYXyEQIlxre6jCqfv+2F556/syj/8jl7T/ue0lRueGM11pz7f9QzTJeqvRRiy74cdv/Hu0V+t/W+CAPVPsbesa0+98oVGKbh5h60m+4pxuA3Vxva/5nFLOsxA9fUcqXCvb3oPyrGHpdClRMOTqqqqt4vIF/f1WWfRQBH5YlVV1RWq+vYQB1mnTp06tqys7L+AdxPnq1xPjQNura6uvhq4qqGhYVXaCZkMuKV5PF4nxAsoTcyTwtFf10csWllGq9Qm2ojdAXVSuk8x9hfsy7d+RiOOJE3QcBH5t5y6ay9duqVub2vui/f+7fBtaSfVG160SXAtqA6IE1GHxomTgPqm81R5R7yAThg4oBIojcJ9YfOFeF8duBzyKjKf68Z17XNy1eRGD5899KelrmnuvsVuZXblki6s9CIwiQVNb2B25e0dvUCUN+z73weBc/b/fOo3p06fPn1YTU3Nr0Xke0BWi/YDROQVzrmHa2pq3pXkujU1NW8rKytbC/w/sl20t1cLNFRVVX1z+vTpw476atO3FfwrUKJNlBF4KlasTCiccB4EPuAHUKI3pl62dOsFly7f+rAqP6Y0i/Z2ZADCRweUF9deuuz5T57/l+ZBaWfUY0X3IKrx3mB7OSZarF5yqrOJcNj8ZSrgTokXr3fE6ydAysJG0XtwevQWmYQJ3A7g5EBxfrAb1w4HXg/8HOSgDpRUC/fq6uophUJhuar+XZp59MAxqvqd6urqhfS+yHbV1dXXq+oP6OwxUMaJyHsLhcK9U6dOjTcG0GSOE5lOu7GsoXmRvnugryO+GKd1rjxXUoX7ZSu3HnvJ0i1fU9E/UvIF+2GOBfni4NzgJy9b/vwb006mR3zrOiDayFaHjogVq1cWNL9GkddHjuocnM1iDXhKOCHzm2uBiwNHUVWZz9UT4z/VamuneVDbivPDlefeAKDC7XBwJ0pqhXtVVdUlwCrg1LRySMBV1dXV373ooot61HI0ffr0YdXV1XcA1yWcVxrOLisrW3buuedOSjsRkwJVUZEqYj0tEhTpXzvuLsrFS7qKmaVzOPLSpVvfqkV9QoQPUDpPKntigqr89NJlW3570X3bJqWdTLds27UNaIkWTw7vCc6c+auHiegHibjRsY8onM62htS7LY5GcvoJjtjznwS9h0Ix+m77gejorcDwtskxBxPd1/veUjysjSaVP7yqqqorReQu4v+lDeEd27dv77A/6UjOPffcSYVCYRVwSYCc0jIpl8straqqOv3oLzV9yk8oA433CFa1CeWZaPEyQKNcvFQa/e0XrXxp9KXLnv8loj8Ejks7n4henRP/n2kn0S3zzmpB4+24owcOMmaXG/Ba4B9Sia2czIaB2X6TW994Ol5fGzqMqtzMtZNfCB2nQ84NJ+dvh4N62dvcsnYScI7AbR3lF71wr6mp+ScR+XHsuIFdUV1d/buuvri2tnZULpf7PW238/U1x4nIH6ZNm3ZG2omYiDZvHolG7NUU10BxT/+5Vv6W5vHAiaHDeMl+f/ulSzdfnCu2PgLyurRziawF0Q/dNWPUW9NOpNucbIkVSpFsF+7zV48RuCq1+MJ4Rg3IdOEu6uYhEnq3/W4GD0ptbKh6PXff2N2fA6/f19PepujeAOCVDjeFoxbuVVVVb1TVn8SMGdHlVVVVXz7ai6ZPnz6sWCzeDZwcIae0jHHOLampqSnlNijTHcWdkwh6u8rBVFnKnJNfihUvdcUYbTJAUTNbuFev1LLLlm+5HnF30b922QEaPa72rtrR89NOpEfiPh3L9lkxN+BK4JXpJSDH0OKze4B30TOVRHgaoSo3874x20PHOWoesq84L3Pv2f9zgvsw8GJn02aiFe7nnXfeK0Tkp7HipUFEPl5VVXXlkV5TKBR+BUyNlFKaxqjqL6qrq7P9RdQkQyTmoUAPvse3MZcipxEKd2UrcyZm8sDv5X9+buzw4tb7VLmOvt3L3pGfFXcVz75n+ogH006kpwSNeVvnYL7zXDZ33euenijwgVRzEM0xeGBmJ/i51uLHgbCjQ5WluIF3B43RVddU3gq8KG0TBaF+/bmgE0Xk1s4+JErhPnXq1CHe++/FiJU2Ebm1urr67I5+rbq6+mfA30ZOKU2niMi30k7ChOfEnRUx3F5yLpMFZiga42BqRttkXnXv5nHFfNlSoDrtXCJrUXT2XdNHvXHJxWN3pJ1Mb3g08XtPOqeD2bH3tHjxuiP/LtrN405NMXzbXY/MXz1G4T2hwyhyA9ek82/KC4f1rLeNhpRzuWXtJOeLbW0ypFy4l5WV3QBMjhErAwYBh71JqampeR90Mq+zD1PVt1RXV78/7TxMQAvXjWh3818MO3huwrMR46VPNfgoSNHsHUy9fNkLk32Zu4/+8/1jv0aPq717+ui6tBNJhGozEKfPXaigmMFWkLr1pwjMTDsNFEHkVOZqVi7gPMC58o9C8MPFK2jl14FjdE7dYU+Lve4r0ovuDSryBpB1XDOh06fKwQt3Ebkc+GDoOBkztbq6+sDhk2nTpk1U1ZvTTChlN9TW1o5KOwkTipyFRB3r2sg88RHjpWt+47R2V34Hk7WDqa9auunkIsWlQGXaucQlt5d6a8xhXH4NGmkkpHICUpa521Od6AeAiDdLd84hp0Fjtgr3GzaM1gi1oqr/Mh+p2B06TrfMrlgCsk6QDwHnKP6mI708xo772yLEyKIvnn322SMAEZEfEP5dZJYd672fl3YSJhDPWSjjY4UT5aFYsTIhJ3EOpu7ZlZnC/dJlm0/xklsK8W7izYK21piR/1jqrTGHGThgDUK8Ykl8tr7fLmiqUdV/TjuN/RSmMm5Ahma5qzCw8EGQsDP4Re7n+R2/DBqjh0T9rcAkgP1jIjuToT+4PmdEeXn5F6qqqq4TkVeknUzaVPWDVVVVJ6Wdh0meg1OAwNdSv8wL98eKlQVOYxTu+jjXnfp8+DhHd+myl0aBuwMYmXYuETV63Ll9pjXmUO8dvYOIt6eCZOqOGCfMAjL01FkrKOSzU/8tbBoeY0SmevkP5p0V7zKwbvB5fysAyh/2jYnsVLYelfQ9V4v0twEIncqJyA30wz7/vk6R00BjhVuPFh+NFSwLVKgN/ekVZFm0P8EjuPzB54YU97TcAdKP2mPk9uKuwruWXDyqb+2ytyei1DXtjBZPM7TjXrfuVQpvTjuNQwxDdkfbbDkiVaF+/btAxwWNI6xm8ws/DxqjN66a3KhdnJhlhbuJ6R9qamrOWrly5SNpJ2ISJHpavLpd1yG6Nla01C1cNwJP8Ik9WelvL+4p+ykwLe08OrBVYYODDapsQGQE6Ot7u6iis++ePqpv7rIfbkO0SOLCtlx0gyAfI3uz5R1FmQKsTDsRbmkaLiKzQn8P0aJ+Iehuu/IHAJwkfxPr/rX3scLdxCSq+kng7WknYhLy7W3D2bk9WkuDqDyps0+MOFouZUWpjTK13KdfuF+2fMuNqrw67TyAjaDLRViusHRPiy778wUHX9RyybItbxboTeH+tMe9MfgB1AVNbxC4Sp+veE3aB7pFdYNGegLt1A/JxOn1usZ/RPVCsvjkXaSCtAt3VWHh+n9CNfCFlNrI8ZXfDxphduVFXXrh7IolXd1Z72xtK9xNbG+rqan595UrVz6ddiImATt3ng4MjBXOi/9rrFiZ4MK3yQB7mF2Z6jfwi5dufa2qfjjFFLar8iNV/eY9548+6lhMEVzP/1zk9sG5Pe/4Zc24XT1d4ajmrx7gcgNuUm2b0uFGN3/Ww2eCxesCDxvjla+S/qHmb68dKDvk04iUp51Kx/xpLFpZxsya1tRS+NrTw0TLgl9IpSqf40opho4TSykV7n8CVojIX+hgHqz3fiwwQ0Rq6PuXHO0GlgLL930+Orr6fQpQq6rnkbFHz6r6DuDzaedhkuDPRaQMjdQr48r61cFUUakNfn5ASHV++6tXbj6hUNTvpBNd7xeVukH5vT/qTiGtiu9ZESofvGv6yEU9+tCuWvjMqeKLP1XlwG3GKnyKuqY7mVX5x6Cxj0TcevAvRTk4KvE2Ezq1y70Lkczeku7gRM+4MiC9wr2Qex1wXuAoa3i+4rbAMaLKcuG+HviuiNy+cuXKrj7GXbz/f6qqqmaIyD8B7wbGhEgwskbgu6r681WrVjV04fVLgG8CVFdXD1bVvxWRtwJvJeIOaSfehhXupe/6B4c4OE9V42ykCYq0PBUlVmbEuHhJl6d2MFVVCschSlwAACAASURBVMu3Lib+xI0nRPnUnTNG/7QnH9z9HXdd40Vef0/tyLAHqxc0v098cT6H91Q7gR/rwnVncPXEbUFz6NwGRHaiBC/cVVP+Hrdw3Qjx8gkgl2oeR6DIeezdmV4NOH/1MPFuZuhWQPX65bTbxJKWxcL9CRGZt3Llyh/2ZpFVq1YtpW1X+rqqqqq/Bz4qIhcmkmFcD6vqZ1etWvW/PV2goaFhF/A74HdnnHHG7EGDBr0V+BhtY/zScHpVVdXpq1at6l9tD33NoDGjlUKcGeMAykbKh8a5fTELFj59Kj78pkOaB1MvXbZ1DsIFEUNuUvjU3dNHfaM3i3Rnx13gh4Vd/l+Czmav3zTU6Z5vKnrlEV51vPPuP31at3f6/ApyrbFGQqZ7GNS79wMTI07b6omJ5MvTe2PhBryW4N0R8iRbKr4ZNkZ82Znj2ebTDQ0Np/W2aD/UqlWrfrlq1aqLgA8luW4E1zU0NEztTdF+qMcee2xHQ0PDN4455phzVDXsI9sjO9I3GFMSiscDgQ8Vtad/5ZjR4fqCs8aXx3lT1FpIpXC/aOVLo5F4T94E+W5xV3FKb4t22LfjfnS7FT5w5/RRbw9atC9cVy2652HtwtdURd9P3fp0NmyOP34rEGfkpTCQuXPTqW++0jxS0LmgWauvDjWMQks6m7eL1hwr6PuDxhBUnd7Y13bbITuF+9MiUtXQ0PCFkEEaGhrmO+dqgc0h4yTgGefcWQ0NDf8dKsCSJUv2rFq16oPAe0LFOBIRuSiNuCZBqicA0Q5eicgDfemA0dE40QiFu6zjw1Oawsc5XN63/hdwTIRQO0T0TXdOH/nueDeS6hrv/LQk3iQcUX3TR8XLfey/cfHonKh+JWBGnbtSiih7osTyOphx75scJdYhXLn/N0rjpnQHZRNSidxadhHIpUFjqD5BblOf222HDBTuqvqL3bt3n7Ny5cooh85WrFixolAoTAMeixGvBx5yztWsWLEiyiUzDQ0Nt9H2uKqjA64hhT6QYsI78+gvScwuL7IqYrzUqYbvbwdNZbf90uXPn6dKjCvgV0hOzryzdnRiTy2hrVWm81/kx7mBhXPuOW/ME0nGPMiiDaNlQdPvRLmB7t5aLHoF9esvDpPYUUXqr5cBtDI+Tqx2blw7SZHZ0eP2lMtNih6zftNQIfi/fa+wKNWJOQGlXbgvXrVq1esfe+yxqDfGPfjgg8/kcrlXAqtjxu2CVS0tLRetWLHiuZhBGxoa7nXOXQjEu9kOhpx33nnnRoxnEuZEzogXTbZQ8P2ncJ+/egAR3tyqptTfrlIfPIZwx67irgvvrBmZ+BMFJx0fqVPlvXfNGPXW359zfLivpfXrL5bW1kcRLu/pEuL99Umm1OW4SJzvbcLp4MJPrzmEy+e+RPrDH7rjpOgR/d6/pXd3IHSBPsHm7QvDxkhPaoW7qv6hoaHhLWnFX758+Rbn3DvSit+Bh4BLHn744VRO/K9YseIB4J0xY8bZUTShKBrxWnq/ni2Vj8eLl7YBcfrbUziY+qrlz19K8Dcl8vMX3Mgr7ntFxe4Qq3dwgcoT3vnT7p4x6tsh4gGwWHOuvukLov7OXs8pF6pZ2HhFQpl1nfpnI0XK4X2MNqyXLVh7mgpvjhqzlxx+CvWbhsaMKaKhd9uLKvL1oLekpiytwn3jvlGNqVqxYsUKVf2vtPMAmvL5/OUNDQ0vpplEQ0PD7SLyvVjxvPeZmi9vuuGW5vEQ71G0iKzui4eMOpUjTuHu90af4e6Rfw0c4icX1I54Y0ONRHlMrrC4uOulc4O2xtQ/UyEbm+9V5VMk9H1bvPtcEut0h8+59dGC5TTejvvixTmR/PVkc1JfpxQ5l717410QVd94MXBZ4ChPUtzbZ3fbIb3C/d0NDQ3PpxT7IMOGDZtLyi0zIvK+ZcuWbUwzh/1E5GO0XfAUI9aJMeKYAApcCBLtfgTvtV+NDhUf5WnUCuacHGs8HwCXr9h6FsqrAoa494LakW+dJ1He5O0Cfc/d00e9ZcnFk8MdulzYeIVo8WGEGQmvXEXdurAHBA9VZAMQ53udRizcN08/H/S10eIl5yRca/fOSPSCw70HGBEwRFHVfyv217XY0ijcv9HQ0PD7FOJ2aMmSJXtEZG6KKSxeuXLlnSnGP8i+/vpY71atcC9RDl+LaMTJCS5r51HCkvA77kL8Nhnv9ZMBl9/iWv1b4hTt+rR3vuqu6aPD3sh449rh4t1i4NgQywuE/PPoIKB/HDTKxpCTfJxWmblrB4ryOdI/M9h9IsNx5XEK97rm6arymrBB9EnKy/v0bjuk8xftMynEPKJ9c+OfSSH0nkKh8JEU4h5NsDGUh5gSKY5J0qKVZYqci4a+824/KYKuixMrA+qfqQCZGDqM93Enyrxm1fYxCsHONXmVd99xwZgNodZv767a0SuCtsbsd+3kF1Tkw+ECyCVtf98iKStbCxLnLgbvQ+7svmxM7tWEG2+8EgjXq62aI8foYOu349C3goZ8SltU4TvMHNfn7/qIXbjf3NDQEOtwSncleulTF33pwQcfTOMNwxHt+zO6I0as6urqiAccTSIGTSgn6q272oi6qJOWUuV9nP72fD5qf3tLa8u7CPQ9R+HGe2aM/HWItVN3TcXXabv5OgwtxBtK0FZUbY8Sy8nw4DEWrTlW4EuBNjG8Cp9CuS/A2u2iFMNfondLc21XLgjrHX2SYkuf322HyIV7Lpe7OWa8bvqf2AHz+fzXYsfshsUxgojI8THimARt3TkK4bhY4URZzgC3NVa8tDnxEfrbZTNXjw+/Y9yOKh8IsrCwYcDIkZ8IsnZGqC97F4FmoAvythDrHiFglMJdVQO3yqjQWv5mINRY3Pso7v2DCIGnaWnwp3uuoO8CxoWLIAWF25hzcuz7aFIRs3D/9fLly9dGjNctDQ0Ny4CYU11uz8qB1I7k8/nfxoijquF3RUyy8vlTifi1wzvu7Q+PP/dTlfA77uqjtsm8avm2c0U4LcTaovqJ35wsffowGnNO2KwS7GKfs1mwNsifTUdEiTWYIuw89UXPjhL8vwdZWymoyr8z5+S9Hh4GKQSJAzhxJ/LNx8O9yalff64K/xhsfQD0CVrc18PGyI5o33xV9fZYsXrh3liBROT7sWL1xLJly9YDa0LHscK9FEnENhlaUR/lVuXMiHAwVSPPb/feh2nHEB6+c/ro7wRZO2uuqfg+aJCnJA731hDrdiJW29ugYCvPVUdr4V+CnUUR/T2zJ/xh348eBi0GiQMoeio7jw32Jsdp8e0EHR0sBVVu5SMV/eepbKxAIvKrWLF64ZFIcXYNHTo0858PEXkwQhgr3EuMQ0+NF013Qf7JePFStnBdNSELjv1Uova3KwS57Ec914VYN6tUw0xAU5G/C7FuR3ysHXeRchYvzgVZ+/j1JwjBDg3vVa//DqIASPFJIOCkJJkGxQFBlr656SxFAl90qU+iZWGnO2VMrMJ9dYYPpR4gIo9FCrV8yZIl4eb+JsR7H3x2tnPOCvdSMn/LMEXOjhdQNjNrwpZ48VJWlDi3CefiTZS5fPmWikBtMkvvnjEqM6OFo5hVsRgI8X2qlhvXxvla7CJNcFMdxLbLkr8VdK7mnedjoSakiOhPmDPp5aeMmyY9DxqsVQZkGPgghbtz8g7C9rYXFf0ec07YHC5G9kQp3FV1aYw4CWiKFGdVpDi94pxrjhBmcIQYJilux3kg8cZ4Co3RYmWAi9AmAzzK1RODHHTsSFElyMU0KrooxLqZJqIqfCHEypTnLwmw7uHUb4oz3lXL2btjauLLHtdUqerfk/i6bXZ7X/bFg35mnhTABWxb1Rx5Sf5OjlvWTlLRdye+7kH0cVT61W47xNtxfzhSnF5R1RiFaqwWlCRk/imJiU1OAx0bLZpGa1/LBKVPXrwUog1j14ARo9IY4Zu+vXI7AW63dqqXJ71mx8qeA9kZIdBghFGJrvhtHeiK8gWQ5C/EElTgO8wed9gUGVEf9uug98k/ESvm3gmEnBrnVeU7zK6McndDlkQp3CPt3PZasViM8kheRJ6KEae3vPeb0s7BZItTTgPC9EN2wCsPxYqVurr1o4DTQ4fx4qL2t4NelPySemufnyTTmY9U7Bb4WdLLKsxIes0ObR73AMgL4QPJRFzCO8k7mqpV5HWJrrmfstN7ru/ol7xzjwKtQeICiCR7CdeNjSeI6iyC1pi6mnw+ytjqrIlSuHvvM3fJUEceeOCBCF9MoKWlpSRugfTe95/eYtMlKkQ8mMrT5OXRiPFSVojT3+4k2o77Rcs3HU+AA+jO5frN6LeOeOXHAZY9jcUa5jBne/PEIxrr9tSRia11/YNDROTTEGA+vKCqegNzKjtuiVH9KwELd+c5kUUbkmtbLZN3IxLuRlZBVeTrXHVCY7AYGRarxz3gwYrEBe/9zOfzJbFT5L2POdfeZN2bF+dAgu8It7OGPcWSeFqXBBdjfjvs5Krx0cZr5jV3ToBlt9xRO+KBAOuWjudf+i1o0hcZDWBjY/hbNAE0xo47ILnkDqcOGfVa4MLE1mvP6yY0983OX5B/IOhISGEChb3DElnsy48fI8i/AOHeBCqP44o/DbZ+xkUp3PP5fIjrgEMJnmsul9PQMYxJ3CWvHIVouF2UQwjyV66d1G/OWaiLUbjHmyYDoEiAwl3+lPyaJWbeWS2o+2Pi6zp3VuJrdkAgyuWDDp9M4f6d54aI+tkEutRJnVzPnAnrO33B2BOeDXkJE/AKvCQzhnbooLeDVCayVicU/S5XTW4MGSPLYu24l1LhHpyI5NPOwZhu83tOQimLFk58rPGs2aARDqZG7m8XSL4QFI12UV6WiWiAJydxnqh5iHN+SjWZVpmXWt6NBjsD8Ch5/4MjvuJKaSHosAgZgSZQuM9dO1BUrgMNWeM00+r758H0faJdwGSMKXE+V03Ix5+HUtd/2iHqN5wOCU/A6IDXuBNlFE3+ZknlL4mvWYI8mvi0Nuc12UOKnREf50makxG9XmP++gkivA/CbFoo1DOzK08W9ekQ8fetnSOXwEHeUe5KYHLv8+mcovW8MCnW6O5MssLdGHN087cMc+j5ESMWcL7/3Jga62BqLvooyOOSXvCu6aPuS3rN0pRL/I2tOglyqdBhvG4Fgh9QVU1gbKPT96JUJ5BOB+Qv4Lo0GSX4aFyvk3r18XM1L04+QtDNHd2I6mLmScCbZLPPCndjTBfsHKMSoO2hc80UWuJMnsgAF6FNBljLVRWxJ3wlPcf5uYTXK12zJiT/xlaJU7iT24JGuEFVtXftHwvWnibCOxPK5jDquKWrN0N73KMgO0LlgrhJvfr4Mev/HuTMZJLpmMKNPD+xJKbyhWSFuzHm6HK5E4CT4gXUR5h9Uku8eOnSCDemCkTtb69eqWVA0hfVWOF+sKSnLsUp3AuFBxCSnorTkV7dOeFc7kOohpq081v2Fn7V5VerXwUabiRkb9ra5qoT+Lewve2yGYo/6u+77WCFuzGma8YDyUwd6AJReQCR/jF96SvNg8I9in+Zl7htMqP81hC3JkaZRlJCki5+k5t7fiTXTn4BJPjoZYTyHs+mX9BUo6pvTDij/V5S+Grb56GLCm5tyMJdVSu4sfGEHn3w6PWvBA36NUzFf4XNt/Wb8cBHYoW7MeaoHMWgj0AP8aJ30n8OppZF6m/3cUdBorkQu2+2436wpFsnYtYEcQr3dRt7NMLRiX4YZGzSKbWR3zOr8ufd+pCPVOxGXMDPmZyLK3Z/fKaqCPoJwg4u2EZr4QfMm9fvd9vBCndjTBeo16qI4Tbjc/1oFGQ+Rn+7Ur459sHUxCnyUto5ZIskveMerTASCH8Jk1JOeeu4bn9cfdPlirwuQEYAW9X7RT36SK/h+ruFCeRd9yfL1D1bjXBxgIwOUOG/+dCJttu+jxXuxpgje/PiHM51/5tfTwmNzD7hiWjxUiYR+tuB5cysCfaYvSOqLYnvuDvR5G7C7Bt2J7ucxtvRVJ6PEKScHN3uURfVD5H8+Yy2teF25ky8s0cf63gq6XzaceC6+e9LRSh8ikCjMvfFeJHW3Hf7TetkF1jhbow5slfWVoIGemR8OEEeh370RVo1eKuMIFEPpgJ4kcQv3lPlmKTXLGma9E3G8f7defERzivIONR3r2+/vultIGF2kFWf9cJXe/rhHnky6GSZYje/zi949lSEKwJlA4AiN/Dhcbbb3o4V7saYIxM5D6X3F5l0kVcejBUrdTeunYQwIXSY2AdTAYo+n/xUIKX3l8T0JZL4nPx4I1idi3F7ajlOhnX51XPViXINgQ7ii5MfcU3lih4voHo/6J4EUzqYuBO7kYs4af0kQXfb2cEAd2u/2sjpAivcjTGdUxWHTEfiTZRBiwFvCMyYMhejTQYK8Qv31mKhS/Opu0Oh60VY/5D0m77NCa/XOe83A8XgcbQbk3LGNM9ECfUEbL3X1h7vtgPg9z4A7E0mncM5YVKXX3xT40RF/ilULgCi3MwHJqwPGaMUWeFujOncAsoVqlASb3voxF5ceZzr0DPAIeELd9WNfKhidfA4h/jzBWO2A4nuuotQmeR6JW3+6mEkv9sZcWqPbkHkodBRnHaxV33huhGCzkEIMotcVL7HrCm9uzRrzskvhWyVUZjAgqajn2dSFVee/zBhRwTv9q1yS8D1S5YV7saYzhXWDyHujalPUZQIh9ayIcbFS0j8/vZ2km6HqHj1X16MM2s86/IDJyW9pCDxCveCfwbVF4PHkS7uuKvMAjktUA6rfaE4P5nFfMgd6BOhePSnWnXNJ6j69wbMAxG5mY9Ev+m5JFjhbozpXF5HoCR8AK5zAsthR/8Z+efDH0xVjd8m0y564q0XRWmZmvSaJcnr3yS+pmq8C64+fOJGIsxyV7pwoPkrzeNF9epgOah8nWsnJfIkUWBtEut04kw0f+TCfe5c54RZIAEPiuseX5T6cOuXNivcjTGdEzklYjT1yp+Yc3KwHs5Mmd9ci0h58DgS+eKlg4M3Jr2iF3du0muWIkfyhbsXXZP0mkciMS5hQo+64+7K9KMgIW76BeURnP9GUst5YQ0Q6oCqwx2lID/uvccqfCBQfABEpY451tveGSvcjTGdc3pGxGh7QFZGjJeuXJT57eCHptcqIzyc/JKck/SapUiR5HfcvQbvOT9EjJGQR55NvnDdiSrMChVd0QVcPTHBNyjuSRKf39+OFjt/ozNXHermQNCnsLs93Bhw/ZJnhbsxplNOiVi463bciyEfA2eK0xiFuzzEnFGptR4JPBpg0X9ANdZh6WxqO0A4KeFVPQOefyThNY8cMEprjg440q86LyEvEFrBngHfT3TF1tY/A+FmuR9pJOTwxmGi+u5gsQGBhcyu3BAyRqmzwt0Y07Hrnxui0v1bB3tO1nPNWeG+IWWMEuPiJZ9imwyoJ0QhOPJVK7ZcEmDdUvIPAdb8a+zbdRG2ho8heebe0/GkmPmN0xT+OVRoRf6Djx2/M9FFt922GTTZNdtx6MROf7E8989A12e9d99OLy03B1y/T7DC3RjTscF7alE6/yKeMCHodd7ZcstTY4Hg5we8T/NgKtw1Y9RjIdb1yJUh1i0VIskXm4I+kPSaR+U0fOGukmfcqR2eJRGXuwECjboV/sSQwm8SX3fePI9IsHn7qjqebzQf3i5zwxOjRXlfqLgAovpdrjnJbkk9CivcjTGdcKcjdO8K7N5Q+Wu0WGkrlsXpb6eYauG+z58SX1H5pzcv1lzi65aCuvWnQPJtVl4C/DkdjZZtA1kXOEg5hQ4mpSxYexFosCc36uUz/PPkIIdIRQl3SZ3IcewtHn4j74DBbwPODBZX2elzA64Ptn4fYoW7MaZDTpmKMjBWPC8+yO5sFjnJxSjcX2LOiQ9GiHNEAncHWHbktsqtbwiwbuY59R8MsnBR7gyy7pFo4UXwofuZ8+ieg59u3aN5kdx/Boz5W8on/DnU4h4Jebt0NQVGHPQzizaMFuGdAWMiwve4+vj+c2t2L1jhbozpkCJnRwz3NL74RMR4qVLvg/e3I+m2yewn4u4Jsa4Kn+t3h1QXbRiswruSX1jWMacy6ihIAGZVPoa4sO0yShnC+IN+7rGmNwCB/g1KQZHPMlPCnRdo23EPtX4elzv4ttnW1itAw202CC96V7BJMl1khbsx5nBz78mjfkrEiA/jyvvP3N4IN6ZKqhcvvax15/A/E2bu9BmXrtjar3rdXUvrxwkwik/wdyS9Zhcjq2jyl3QdHIITUIYf+HH9pqGifD5YONWfMnZC2LG2quuARC506pgfdeB/b3hitCBhb0lV+TFXn9hvNm56ywp3Y8zhxk0eg8ioo78wGSI8wuavR7iMJQNuaToL2hUSgXiyUbgvuVgKwB+CLK7MC7JuFt3SPF5F5oZY2qv7bYh1uyj8AVUYAfuezuied4GcFijOXk/+s1wpxUDrt8m9dD+wPdj6QsWB/x8w+HLglcFiKVs9fn6w9fsgK9yNMYdrlTMQoh3+88ojzJvnY8VLVTHSxUsyML2Llw4h6A8CLX3qJUu3BBvnlyWuyH8EWnon5Rt/EWjto4oxy93BUBBl/rNjBP1sqDiC/ohZJ4TfOW4bmxtsdK6DiSzWchauGyH4oP++RLidWROTv++hD7PC3RhzOJVpaKAxaR3JBZn3nUkuwvx24CmuGftchDhdUtjl/5dA17SLcNPly7dUHP2VJay+6TxFA/S2g8D3os9vb8/JpghRhqEq5FreBxJoUpbs8GX5zyCiYdY/JBoabBqPIifw3DNj8fJKRC4LFQdlq5figmDr91FWuBtjDjZ/9QDnNOa18jvYLfEPxqVEA4zyO5RkpE1mvyUXj90B+tNAyw8rKovnqvbN72eL1hwryv+EWt7jbgu1dhcTCN4qozCBmxonisqnQsUQ/LeYOb4p1PqHUQm3sy8ylrxeJBC2t130/7hmcvz7A0pc3/xCZ4zpudzAClXOihZPaOTFb+yNFi9N9ZuGgpwbOoxXzVThDqAq3wm4/Iw/r9jyyYDrp0NVpFD2P0BloAhrmTXhvkBrd03bJUy7gsYQal1ZbjYwNFCEF31ZWbADrx3x4sO9SVCdIV6/Rpgbevfb6r2rC7h+n2WFuzHmEFKByORo0ZSH+k1/u2+J09+ey2Wmv32/u2eM+j1osCcrqjLr/L80Dwq1/gF1jVXUrw/+5guA+vWfRgnWqqDCDaHW7rJibjtK2MvXlBMUPhJqeYGFzBz3fKj1O4m6Dgh5y2jQf0ui3MGcisxtMJQCK9yNMQfTwhSUY4/+wmR4kdQvCYpGihH626XAxvGZ/IaouFCF4r1o4Zz7XlGxO9D6beqaPiK4BvDhbxSuX/f3goabmqM8yzWVC4Ot31UDBjci8kLaafTCZt9a/K/oUcv0EZQXo8dNxkZf5L/TTqJUWeFujDmIk9ypEcNtxBcfjhgvVaISY8d9OfMkk08wRg0Z8S2BJMd+FkX00xfUjrzwrhnHhZtOsnDdCFnQ/CthX7HhAx/cXtB4iagE62sHUPTLIdfvspkjXxQCz3IPRVCF+Vw7Of4bj5mTnkVKs3AX+C0frlyRdh6lygp3Y8xBVDXejakiG8kFPGSVNTEuXsJncrcd4CdnSYsKSd2Q2CzKBXfWjv7CPAn4RmXh+hlSlEcRvSJYjPbq110g4v4PKA8Y5Xla3dcCrt9dmZmA1C3KRmTgTSnGL703PMKzXrHe9l6wwt0Y87LFmgMmRIunuparK9dGi5emhetOBMaFDuORzPW3t5cv5Ovp5QxqEfmF5OTsO2eMWppQWh1b0PQp8f4+hBMOTkDDvFGoX3eBqPwOGBhk/X0UPstHArcVdYNHY4yETJgUFD7HNWODzVM/agbok2nF7imBO5hd2ZB2HqXMCndjzMs2PT0FiHdjKvo4xJl7nLqCjzG/HVz2Jsq097tXHLsV6OENoLoX1Vl31o58/Z01I8O1CSzaMFrq1t0twhc6TkOS/95Z3zxLVO4ABie+9kHkccZWfDVsjG5SKcEdd78GGfjdVDNASmzTQzd6/CKgf3zND8QKd2PMy2TAVLCDqSE4l4vR376Bqyc+HSFOr4xcN/JmQZ7q3kfpGi9SfdeM0fVhstqnfv3F0lp4BOTioHH2q1s/SuqafiOqCwi80w6g6t/PlVIMHadbSu9w6l5VTXW3HQDR9cAzqebQDYL7PWMmZvqJYCmwwt0Y02buXOe0WEvgMWAH8ayOFitlSoSDqZqti5c685MrpaiqV3f5A5RbB+dapt5TOyro1eiurunzov5u4LgjvjCpVpm6da8S/CPA3yWy3lGI8GNmT/xzjFjd419KO4NueojW3M/SToKcNEL4C6wSobrR56jL3JvGEpRPOwFjTEaMmzlQW4vV8Z5i6nYKPvLs45TMVQfrgxfu6rLd397eXTNG3XHpsi0/A/7xCC/bjvCBu6aP+nHQZBY1niCtbrHCBV16vUjvpsrc0nSWFLmeSAX7Pjt80V0XMV436DagFaQs7Uy6YLeK/GcmzghcVfkIdU1JTmkKRuB3+tyLdktqAqxwN8a02b3nGPJl8SbKII8z2JfEN51eG7NuOrjwX2+9lMSO+8vKPgCttcD4Dn7xQc3l3nR3zfBglzYBUN90ubTyI2BElz+mp+Mgb1k7yRVyX9Iib4XAIyUPoci7mTNhfcyYXZffAcXlwN+knUkX/IExL/4q7SQOELZmv2NcNnlYwLyzWtLOpC+wwt0Y06Z8wHB8cUyscCKs0A1NO2PFS5VKbZQyzb1QUoX7XdOHbbl46ebXO3FLaff9SISbtrmRH2+okdZgwRetLHMtY7+syrXBYkDbpKZNTa8R5P0UuUIl/vddgW/rrIr0Wzs6k9OdFGRj3LcyPaHbVeRGrsxOASrIk5rxyl3QX6lW9Jv7OkKzwt0Y00YLp0TcBGz1nj8y7+JCrIBpciK14b+16gNcc1a6h+V6fb7smAAAELRJREFU4J4ZYxouW7bl4wpfEdjmlbfeNX3U74MGvWXtJGnN/USFmh59fFd63OsaqxzuTbqp+T0gwceAdkpY7fP5WanF74qrKp6RuqaN2S4/AdzvuKYi7N/NbvLKMxl/v/OSF77KHNmbdiJ9hRXuxph93JkRp3TtQlkZK1jalBgXL8my7Bc+Hbtz+qgbL1u25Vhp9V+7+4IxG4IGW9D8JinqbcCQRNa75amxtObHk8tNduj5qswAqoFBGfjz2KNF92auGbcr7USOTjZnfErgFhV3c9pJHEb9s4jsIvgY0Z4R+JXulUfSzqMvscLdGAOAU3+aRttx1xfYsr05UrB01W86Ht1zUugwntKYKNOZO6eP+mzoGG7Buq+p6Ad6u47g5lPXNBiopEjbfDbNXsOCoh9kzoSSGLnq1T/T2zO/IYnwE71m/L1p53EY8U2QWw+cknYqHdjtkfmZOMjbh1jhboyBBU3jFKbECyjN/eagku6Jc/FSsbQL96AWPnOq+OJPFc5MZkE9LZl1whG4RWdNvC3tPLpMZGPaKXRKeMar/3raaXRoc2MDY6dsRLNXuAv6P9oiD6WdR19jc9yNMaByMkhFrHCi+tdYsdLmIrTJAC/woUp7HN2R+qb3iC82kFjRXgKUpb5s04fSTqNbJLuz3EX5DrMmrUo7jw7Nu7iAZ3PaaRxGtcWLLLDd9uTZjrsxBkTPBCbGCudFHo8VK20q1EbooSiZ+e3RLNow2LW2fk2Vd6SdSmTNCm9iZk24iTxBuB0gRdBc2pkc4imvxe+kncSRiMj6rDVqicgPtVhhu+0B2I67MQYnTI0bUZ+MGy9FqsFbZUSsTeYgdevOlNbCQ4r0t6J9rSozmF0Z9oBvEPkdiGbu3IsiX2P25ExvNHjRxrRzOETBC/U2SSYMK9yNMajIORHDPYX6pyLGS8/8p88BOSZ0GK9qhft+9U1XC9JA1DMbmfCY5lpKtGgHlF1A1t7QP4q4H6WdxFGpPpN2Cu2J6o8o7rXd9kCscDemv1us5agGn3qyn6D3oYXSLC66K1cWo78dcq1WuC9ac6wsaP6VKPXAgLTTiewhbS3+DVedtCntRHps1glNopqpA6oK9VwzPnNPAQ4nzwFZ6SX3Xlwdc0623fZArHA3pr97rrkCZGSscF7lIWaftD1WvDQ5jXIw9cmSLtiSML+5VlrLHkH0irRTiU/vUb/3b7l28gtpZ9I7oqjL0M6x3kdZ/idpZ9EleXkWJRNjPwUWUzYhmwd5+wgr3I3p78SfAhrva0FOHkUkWyepAlEi9Lcj/ftg6oKm68TpvcCEtFOJTUT/SzdXXsackzM7kaU7vCMzhbuSW8TMcc+nnUeXPDthDSJZ+Nypp3gTM6XEDkaXFpsqY0y/pgLrYo7JU5TVEeOlZ9GaY2nl7NBhfH89mLpw3Qgpyo8QLk87lfh0u6p7i86q/E3amSTK+41k4hImuYshQ36edhZdNk+81DU/l/ZuiMBPdOykfnMjdlqscDemP/vm80PdHne2xvuKv5UxE5qiRUtTaz5Of3s/vXhJivJrhBlp5xGd8oii/8DsirVpp5K83BbwaSfB/2/v3mPkvO4yjj+/8+6uY4yJHdO4dnZm16ldVBqC07ppGsB11Aj1Xgo0EiJUUKqaeGddGpCAVCVaSCIUTKKa2DSSaYlUAjKKCBXqhUuKmrQiTUhT26FxfYntsZP6HhzXjndnzo8/HIVabYi9O3POzPt+P5K1krXa57fyZZ85c95zXO0N+q35fbX1KCo2LdnN1z+CyWPb/kI3WDvfENXAVhmgys5MLnbpbQkTd+kGq8aNqWbdL+7uk1pbq2Rxdz+zyqQ7JFXlbfmTLn3S/cwKjY+WsLRLUk9cwvRPGhz6Su4hLpgVu7Lmux7U0U2stidAcQcqzZfKtSxVmpn1xANUKViKB1NDhfe3r112Jjbqn3RvXynTw7nH6SYz/7wPxterUb+j1Kd1uJ+S9GLWEdrx01q9+FTOGaal1Toq5buFya1Yp4mJ/G+XVADFHaiytl+eMi5KFTrbN8GDqV7NbTLnGF/ytI/VV7rsPZK25h6nw77prrfEsZHf0OrR53IP03Vx4KRk2Y6ENOl+LRr5eq78GRksjsr9ySzZpn/R2GXfyJJdQRR3oMJCSHhJjWuforYly8vp081lki3sdkwUFy+9rFH7ojfqV7r8NyX1+1aSx1z2Hm/U36rxenW2H8wqXlS2v9P+QnTd3bdb+aIdkOU5TtNVTOTIrSqKO1Bh7kp3Y6p5UwMVOVFmIMn57ZIGq7tV5pU0Ru7zw7Wl7n6DpMdyj3NBXP/pZu/yRv1qNWpfzD1OciGeNCnLEYwm3a9G7b9yZHdEY/ioeczwrow9xGp7WhR3oKru9UEpjqSKM9lO3TRciRtT01y8ZE01Fu/tfk4fmrCo8ZF/8Eb9apfeLqmnL9Ix6e9d/os+Xn+bxmpfzj1PNqsXn4ryHDeVnogW1vX7/RLRbE/qTPf4x6kzq47jIIGqau+rycJcJToLMsq3S/39g/F8pbh4SYpskzkfjfrXXPqa7mpeoqF4o8k+IiV8p+mVbXX3v1Yr3ud9f+tpB5kOpH7E0sw/42tquzSWNrfjzJ5O9f/5S4EPabzen88E9DGKO1BV0X5GinOV6uxft6fSBGV27+ODmlLXi7vzYOqFubl2TNJ6l9Zr497LFW1VkK1y+SpJtQQTHJP0dXd7REX8d60Z6d9tGd3kSr3d40hsD/X9arskKbaOyYpUae6uP00Vhv9DcQeq6FYPQfve6rJZ6ULb302XldHka65O81qIFfdpWzOyW9LuKH1WknTvnkWaLJbL4pVBttylpTr7a940E3ZJ2mmuXTH4FrkeUWOkGi9cZyr6EYV0FwmZbKOvXZRlX33HDQ4eVzvuSHLEr+kRNWr/0fUc/BCKO1BF9SNz/LStTJh4RG0/njAvHwtvdsVbup4zNcCDqZ1y9qjF5yR96ZyDqO9qztZFWqYYXyNpgVzzZOFimV8k1/flflIKJyU/qcL+Ry3fr7X1ly/C6f8l3AwsHJR0QNJlCdIOxPjiHSrLH1V76qC8OCh1vbi7e7izyxl4BQNmdp2kgRhjEUIIL30sYozh1T6aWaGzD7i+/NHdCzMLP/gxhNA3V5yb2XslDXYz49FHH812Tu2F2LJly6EVK1Zc182MVqu1p5tf/9WY2a91O8OT7jk8T63J+ZJfkWybjHyrZl/0QqKwvBq19blHQIfcXDutSt090AMW1g76wf0fl/mlMmt1Lcd9QNF3lOpCq7El3/ON+25R9Ktk4XRXMqIXCjquseF/7srXx6tK934UgN7xmf0/a62Y5rIOk5vbunh40x9ysx4AANPHcZBAFU21X58sy3U6WnyY0g4AwMxQ3IEKCgpvShh3TIr9dREOAAA9iOIOVJH5aMK041oz2hfPdQAA0Mso7kDVbHjmtW5WT5h4oBRnJAMAkBnFHaicsFTuw6nSTHoiVRYAAGVGcQeqJuoqSclW3KPbd1JlAQBQZhR3oGJCsBXp0vyEQtyTLg8AgPLi5lSgYty1PF2aPS0faKbLAwCgvFhxB6pk/Y5Zki5PFWemJ3R4+4FUeQAAlBnFHaiSYva1kn48VVyM+rYmruveteUAAFQIxR2oig9tLoL83QkTXUV4MmEeAAClRnEHquL6n7vM3VclTGxpyL+bMA8AgFKjuANV0WpdLSndiTKmQ2oOP58sDwCAkqO4AxURZO9IGui+XRMWk2YCAFBiFHegCjZvLtz9XSkjTfatlHkAAJQdxR2ogsPXrpQs2W2pMnshenwiWR4AABVAcQfKbrMXQXG1JEsX6nul9tZ0eQAAlB/FHSi7w803uetXkma6dqhx+bakmQAAlBzFHSi54H6jpIGUmSY9JTNPmQkAQNlR3IEyu2ffSlf49dSx0fVY6kwAAMqO4g6U1a1fHTBpneQL0gZbW4rsbwcAoMMo7kBZXfq635X0lvTB/pSOnDyQPhcAgHKjuANltP6Za8z18RzRJntQE1dM5sgGAKDMKO5ACVkobpE0nCH6eAx6IEMuAAClR3EHSibc05yQ9L4s4abHtKa2JUs2AAAlR3EHymRD851u/qlc8e7hS7myAQAoO4o7UBYbmr9srgfkKW9I/QHuz8vDl7NkAwBQAUkvZQHQJffsW2nun5c0O9cIZvZ3fumiHbnyAQAoO1bcgX73l80bTfpXZSztkhQVN+kGa+ecAQCAMsvzljqAmbv32R/TZGu1mf5M0lDmaZ7wRv3NmWcAAKDU2CoD9KP1+4fD5NTtbvbh3KNIii5tyj0EAABlR3EH+smGA7Xg7Y+52g2Xzcs9jiTJ/dtq+YO5xwAAoOwo7kCvczdt2HtNsPBh9/b1Li3tpV1uLr9dnxh9LvccAACUXe/89Adwrs1e6HDzHeZaI+kDucf5kUwP+1h9Ze4xAACoAlbcgU7buHe+4sAKWZwrH9gunzquKTuum2unz/m8P//eHM1uXaTWmTkqhi5WoUvkWiD5kuC6wg81f17SqHr33+lpj/5HuYcAAKAqWHEHOumu5mwb8r+V9H6ZBXl8Whb2WPRnY7BH1W4/q6KYJfdFQTYi94UetERRb5RpnvrpiFazB32s9sHcYwAAUBW9upIH9KdBLZX0XkmF3CXZG+T+BjfJ3H9boYhyN0nm8rMvnV39+BL6sLf993MPAQBAlfTP6h7QD4LeLmnwlT/Bg/qxpp+r7a6Pam19V+5BAACoElbcgQ4y6Z25Z+g++0eN176QewoAAKqGFXegU+5+Zp7cfzr3GF22211/knsIAACqiOIOdMpgeJ9cl+Ueo5vcdZvGa1tzzwEAQBVR3IFOcDeT/apMQ7lH6ZIpl35P4/XP5R4EAICq6veH5IDe8Fc7L7XW0G6Z5uQepRvc/Q80PnJn7jkAAKgyVtyBTmgNXVXW0m7SbZR2AADyo7gDHRDMr809QzeY9DexUf9U7jkAAADFHZi5jXvnu6t0xd1km2Kj9pHccwAAgLMo7sBMRa1QCMtzj9FJZnZPHBv+mGSeexYAAHAWxR2YoSBbJfefzD1Hp5h0Rxyrjcso7QAA9BJuTgVmyF2/UJLzmR7xgcHV/juL/jv3IAAA4Iex4g7MxF3N2TJdkXuMGTplrtt9cOCDorQDANCzWHEHZmJI10man3uMGTjsro/6eP0LuQcBAAD/P1bcgem6ddtQcP1S7jGm6fsm3e+u5aK0AwDQF1hxB6brkotHXPH9/XcBsT/kHtb5keGvaMJi7mkAAMD5obgD0xV0pcwW5h7j/PmT7n6bxkcfyD0JAAC4cBR3YJqCxQ9476+2T0r2b+6+XlY8rvHho7kHAgAA00NxB6bJZb18W+pJkx6IFu7T2PBXcw8DAABmjuIOTJPHM6uCzbrTTW+U9DpJczKNEiXtlrTT5N+KHr+pgdnf8JteeyjTPAAAoAt6/n1+oOfd/cw8DQ1eHzy+2+XXSFaXPEpmkg9KoZC8kCxKrpd+fwYnOvmUZMckfcdMj0f3bZJvVZy7U2sXnOjUtwUAAHoLxR3otM2bCz31IdPongFNXjxLrROL5cUSuVxqS1aY3BcG81G5LXPTT+nsiv1cSUEml+tFybbLfI+5HYrypsz3Kfp+DRTbddPws5J55u8UAAAkRHEHcrl125AWX/IT8vZ8tX2ezl7ktEAWTqjdfl5F+4iKuSd06uRpfWLJ87nHBQAAef0vKdiE1dXf5qEAAAAASUVORK5CYII=;" parent="1" vertex="1">
          <mxGeometry x="1452" y="355" width="84.75" height="31.08" as="geometry" />
        </mxCell>
        <mxCell id="mdYL66zVKTUVf9z0niZe-4" style="edgeStyle=none;rounded=0;orthogonalLoop=1;jettySize=auto;html=1;strokeColor=#66B2FF;" parent="1" edge="1">
          <mxGeometry relative="1" as="geometry">
            <mxPoint x="1535.23" y="373.5" as="sourcePoint" />
            <mxPoint x="1712" y="374" as="targetPoint" />
          </mxGeometry>
        </mxCell>
        <mxCell id="mdYL66zVKTUVf9z0niZe-5" style="rounded=0;orthogonalLoop=1;jettySize=auto;html=1;strokeColor=#66B2FF;exitX=0.5;exitY=0;exitDx=0;exitDy=0;" parent="1" source="mdYL66zVKTUVf9z0niZe-1" target="C84VSm6xdojD2v56TbDM-77" edge="1">
          <mxGeometry relative="1" as="geometry">
            <mxPoint x="1483" y="364" as="sourcePoint" />
            <mxPoint x="1567" y="323" as="targetPoint" />
          </mxGeometry>
        </mxCell>
        <mxCell id="p2HoC0-vULK4YWjdUu30-2" style="rounded=0;orthogonalLoop=1;jettySize=auto;html=1;strokeColor=#66B2FF;entryX=0.5;entryY=0;entryDx=0;entryDy=0;exitX=1;exitY=0.5;exitDx=0;exitDy=0;" parent="1" source="C84VSm6xdojD2v56TbDM-44" target="C84VSm6xdojD2v56TbDM-56" edge="1">
          <mxGeometry relative="1" as="geometry">
            <mxPoint x="2029.27" y="181.5" as="sourcePoint" />
            <mxPoint x="2035" y="258" as="targetPoint" />
          </mxGeometry>
        </mxCell>
      </root>
    </mxGraphModel>
  </diagram>
</mxfile>
